<mxfile host="app.diagrams.net" modified="2024-02-06T06:03:24.764Z" agent="Mozilla/5.0 (Windows NT 10.0; Win64; x64) AppleWebKit/537.36 (KHTML, like Gecko) Chrome/121.0.0.0 Safari/537.36" version="23.1.1" etag="RORI_sVRd46nCKnWLop9" type="github">
  <diagram name="Page-1" id="kuHKQ_t6RjrButwFvRsB">
    <mxGraphModel>
      <root>
        <mxCell id="0" />
        <mxCell id="1" parent="0" />
      </root>
    </mxGraphModel>
  </diagram>
</mxfile>
